<?xml version="1.0" encoding="utf-8"?>
<!-- Generator: Adobe Illustrator 16.0.0, SVG Export Plug-In . SVG Version: 6.00 Build 0)  -->
<!DOCTYPE svg PUBLIC "-//W3C//DTD SVG 1.1//EN" "http://www.w3.org/Graphics/SVG/1.1/DTD/svg11.dtd">
<svg version="1.1" id="Layer_1" xmlns="http://www.w3.org/2000/svg" xmlns:xlink="http://www.w3.org/1999/xlink" x="0px" y="0px"
	 width="30px" height="50px" viewBox="0 0 30 50" enable-background="new 0 0 30 50" xml:space="preserve">
<path fill="#FFFFFF" d="M29,14.776v28H1v-28H29 M30,13.776H0v30h30V13.776L30,13.776z"/>
<g>
	<path fill="#FFFFFF" d="M14.993,38.804c-5.491,0-9.958-4.467-9.958-9.958c0-5.491,4.467-9.958,9.958-9.958
		c5.491,0,9.958,4.467,9.958,9.958C24.95,34.337,20.483,38.804,14.993,38.804z M14.993,19.888c-4.94,0-8.958,4.019-8.958,8.958
		s4.019,8.958,8.958,8.958c4.939,0,8.958-4.019,8.958-8.958S19.932,19.888,14.993,19.888z"/>
</g>
<g>
	<path fill="#FFFFFF" d="M14.992,38.554c-2.895,0-5.25-4.355-5.25-9.708c0-5.353,2.355-9.708,5.25-9.708
		c2.895,0,5.25,4.355,5.25,9.708C20.242,34.198,17.887,38.554,14.992,38.554z M14.992,19.638c-2.619,0-4.75,4.131-4.75,9.208
		s2.131,9.208,4.75,9.208s4.75-4.131,4.75-9.208S17.611,19.638,14.992,19.638z"/>
</g>
<g>
	<g>
		<rect x="5.554" y="28.596" fill="#FFFFFF" width="18.875" height="0.5"/>
	</g>
	<g>
		<rect x="7.117" y="23.638" fill="#FFFFFF" width="15.791" height="0.5"/>
	</g>
	<g>
		<rect x="7.117" y="33.554" fill="#FFFFFF" width="15.791" height="0.5"/>
	</g>
</g>
<g>
	<rect x="14.742" y="19.316" fill="#FFFFFF" width="0.5" height="19.06"/>
</g>
</svg>
